# xmcd
#
# Track frame offsets: 
#        150
#        16901
#        40866
#        58589
#        75635
#        89646
#        113169
#        129408
#        155526
#        174560
#        189890
#        225318
#        246332
#
# Disc length: 3644 seconds
#
# Revision: 0
# Processed by: cddbd v1.5.1PL0 Copyright (c) Steve Scherf et al.
# Submitted via: ExactAudioCopy v0.95a4
#
DISCID=9b0e3a0d
DTITLE=Badd Dog Blues Society - Howlin
DYEAR=1999
DGENRE=Blues
TTITLE0=Key to the Highway
TTITLE1=Howlin
TTITLE2=I'm Ready
TTITLE3=Walkin' Shoes Blues
TTITLE4=Wrapped Up in Love Again
TTITLE5=They Call Me Mr Cleanhead
TTITLE6=Big Boss Man
TTITLE7=I Just Wanna Make Love To You
TTITLE8=Sweet Home Chicago
TTITLE9=Built for Comfort
TTITLE10=Father Was a Jockey
TTITLE11=5 BOnes
TTITLE12=Sonny Boy Blow
EXTD=
EXTT0=
EXTT1=
EXTT2=
EXTT3=
EXTT4=
EXTT5=
EXTT6=
EXTT7=
EXTT8=
EXTT9=
EXTT10=
EXTT11=
EXTT12=
PLAYORDER=
